<?xml version="1.0" encoding="utf-8"?>
<!-- Generator: Adobe Illustrator 24.0.0, SVG Export Plug-In . SVG Version: 6.00 Build 0)  -->
<svg version="1.1" id="Layer_1" xmlns="http://www.w3.org/2000/svg" xmlns:xlink="http://www.w3.org/1999/xlink" x="0px" y="0px"
	 viewBox="0 0 50 50" style="enable-background:new 0 0 50 50;" xml:space="preserve">
<style type="text/css">
	.st0{fill:#FFCA00;}
	.st1{fill:#FFAC12;}
	.st2{fill:#EF3F0F;}
	.st3{fill:#CC2A05;}
	.st4{fill:#383838;}
	.st5{fill:#2DAAD6;}
	.st6{fill:#FFFFFF;}
	.st7{fill:#63C4EE;}
	.st8{fill:#4D4F4E;}
</style>
<g>
	<g>
		<g>
			<path class="st0" d="M33.9,27.6H12V10.4c0-2.2,1.8-3.9,3.9-3.9H30c2.2,0,3.9,1.8,3.9,3.9V27.6z"/>
		</g>
		<g>
			<rect x="12" y="17" class="st1" width="7.1" height="5.4"/>
		</g>
		<g>
			<rect x="19.1" y="11.6" class="st1" width="7.6" height="5.4"/>
		</g>
		<g>
			<rect x="19.1" y="22.4" class="st1" width="7.6" height="5.2"/>
		</g>
		<g>
			<rect x="26.7" y="17" class="st1" width="7.2" height="5.4"/>
		</g>
		<g>
			<path class="st2" d="M31.5,6.5H14.4c-1.3,0-2.4,1-2.4,2.2v2.8h21.9V8.7C33.9,7.5,32.8,6.5,31.5,6.5z"/>
		</g>
		<g>
			<path class="st3" d="M31.5,6.5h-8.5v5.1h10.9V8.7C33.9,7.5,32.8,6.5,31.5,6.5z"/>
		</g>
		<g>
			<path class="st4" d="M15.3,8.4c-0.2,0-0.4-0.2-0.4-0.4V5c0-0.2,0.2-0.4,0.4-0.4c0.2,0,0.4,0.2,0.4,0.4v3
				C15.7,8.2,15.5,8.4,15.3,8.4z"/>
		</g>
		<g>
			<path class="st4" d="M17.8,8.4c-0.2,0-0.4-0.2-0.4-0.4V5c0-0.2,0.2-0.4,0.4-0.4c0.2,0,0.4,0.2,0.4,0.4v3
				C18.2,8.2,18,8.4,17.8,8.4z"/>
		</g>
		<g>
			<path class="st4" d="M20.3,8.4c-0.2,0-0.4-0.2-0.4-0.4V5c0-0.2,0.2-0.4,0.4-0.4c0.2,0,0.4,0.2,0.4,0.4v3
				C20.7,8.2,20.5,8.4,20.3,8.4z"/>
		</g>
		<g>
			<path class="st4" d="M22.8,8.4c-0.2,0-0.4-0.2-0.4-0.4V5c0-0.2,0.2-0.4,0.4-0.4c0.2,0,0.4,0.2,0.4,0.4v3
				C23.2,8.2,23,8.4,22.8,8.4z"/>
		</g>
		<g>
			<path class="st4" d="M25.3,8.4c-0.2,0-0.4-0.2-0.4-0.4V5c0-0.2,0.2-0.4,0.4-0.4c0.2,0,0.4,0.2,0.4,0.4v3
				C25.7,8.2,25.5,8.4,25.3,8.4z"/>
		</g>
		<g>
			<path class="st4" d="M27.8,8.4c-0.2,0-0.4-0.2-0.4-0.4V5c0-0.2,0.2-0.4,0.4-0.4s0.4,0.2,0.4,0.4v3C28.2,8.2,28,8.4,27.8,8.4z"/>
		</g>
		<g>
			<path class="st4" d="M30.3,8.4c-0.2,0-0.4-0.2-0.4-0.4V5c0-0.2,0.2-0.4,0.4-0.4c0.2,0,0.4,0.2,0.4,0.4v3
				C30.7,8.2,30.5,8.4,30.3,8.4z"/>
		</g>
	</g>
	<g>
		<g>
			<polygon class="st5" points="21.8,24.1 22.3,23.2 21.2,23.3 21.7,22.3 20.5,22.4 21,21.4 19.9,21.5 20.4,20.5 20.2,20.5 
				20.3,20.5 19.2,20.6 19.7,19.6 18.6,19.7 19,18.7 17.9,18.8 18.4,17.8 17.3,17.9 17.7,17 17.6,17 11.7,20.8 14.3,24.4 16.9,27.9 
				22.9,24.1 			"/>
		</g>
		<g>
			<polygon class="st4" points="5.9,35 0.7,27.8 11.7,20.8 16.9,27.9 			"/>
		</g>
		<g>
			<path class="st4" d="M14.1,21.9c0,0-0.1,0-0.1-0.1c0-0.1,0-0.1,0-0.2l1.6-1c0.1,0,0.1,0,0.2,0c0,0.1,0,0.1,0,0.2L14.1,21.9
				C14.1,21.9,14.1,21.9,14.1,21.9z"/>
		</g>
		<g>
			<path class="st4" d="M14.6,22.7c0,0-0.1,0-0.1-0.1c0-0.1,0-0.1,0-0.2l2.8-1.8c0.1,0,0.1,0,0.2,0c0,0.1,0,0.1,0,0.2L14.6,22.7
				C14.7,22.7,14.7,22.7,14.6,22.7z"/>
		</g>
		<g>
			<path class="st4" d="M15.2,23.4c0,0-0.1,0-0.1-0.1c0-0.1,0-0.1,0-0.2l2.8-1.8c0.1,0,0.1,0,0.2,0c0,0.1,0,0.1,0,0.2L15.2,23.4
				C15.2,23.4,15.2,23.4,15.2,23.4z"/>
		</g>
		<g>
			<path class="st4" d="M15.8,24.2c0,0-0.1,0-0.1-0.1c0-0.1,0-0.1,0-0.2l2.8-1.8c0.1,0,0.1,0,0.2,0c0,0.1,0,0.1,0,0.2L15.8,24.2
				C15.8,24.2,15.8,24.2,15.8,24.2z"/>
		</g>
		<g>
			<path class="st4" d="M16.3,25c0,0-0.1,0-0.1-0.1c0-0.1,0-0.1,0-0.2l2.8-1.8c0.1,0,0.1,0,0.2,0c0,0.1,0,0.1,0,0.2L16.3,25
				C16.4,25,16.3,25,16.3,25z"/>
		</g>
		<g>
			<path class="st4" d="M16.9,25.7c0,0-0.1,0-0.1-0.1c0-0.1,0-0.1,0-0.2l2.8-1.8c0.1,0,0.1,0,0.2,0c0,0.1,0,0.1,0,0.2L16.9,25.7
				C16.9,25.7,16.9,25.7,16.9,25.7z"/>
		</g>
		<g>
			<path class="st6" d="M8.6,25.4c0,0-0.1,0-0.1-0.1c0-0.1,0-0.1,0-0.2l1.9-1.2c0.1,0,0.1,0,0.2,0c0,0.1,0,0.1,0,0.2L8.6,25.4
				C8.7,25.4,8.7,25.4,8.6,25.4z"/>
		</g>
		<g>
			<path class="st6" d="M9.2,26.2c0,0-0.1,0-0.1-0.1c0-0.1,0-0.1,0-0.2l3.4-2.2c0.1,0,0.1,0,0.2,0c0,0.1,0,0.1,0,0.2L9.2,26.2
				C9.2,26.1,9.2,26.2,9.2,26.2z"/>
		</g>
		<g>
			<path class="st6" d="M9.7,26.9c0,0-0.1,0-0.1-0.1c0-0.1,0-0.1,0-0.2l1.9-1.2c0.1,0,0.1,0,0.2,0c0,0.1,0,0.1,0,0.2L9.7,26.9
				C9.8,26.8,9.7,26.9,9.7,26.9z"/>
		</g>
		<g>
			<path class="st6" d="M10.3,27.6c0,0-0.1,0-0.1-0.1c0-0.1,0-0.1,0-0.2l3.4-2.2c0.1,0,0.1,0,0.2,0c0,0.1,0,0.1,0,0.2L10.3,27.6
				C10.3,27.6,10.3,27.6,10.3,27.6z"/>
		</g>
		<g>
			<g>
				<path class="st7" d="M6.5,26.7c0.9,0,1.8,0.4,2.3,1.1c0.9,1.2,0.6,2.8-0.7,3.7c-0.5,0.3-1,0.5-1.6,0.5c-0.9,0-1.8-0.4-2.3-1.1
					c-0.9-1.2-0.6-2.8,0.7-3.7C5.4,26.8,6,26.7,6.5,26.7L6.5,26.7z M6.5,26.4v0.3V26.4L6.5,26.4c-0.6,0-1.2,0.2-1.8,0.5
					C3.4,27.8,3,29.7,4,31c0.6,0.8,1.5,1.3,2.6,1.3c0.6,0,1.2-0.2,1.8-0.5c0.7-0.4,1.1-1.1,1.3-1.9c0.2-0.8,0-1.5-0.5-2.2
					C8.5,26.9,7.5,26.4,6.5,26.4L6.5,26.4z"/>
			</g>
			<g>
				<polygon class="st7" points="8.1,31.7 4.7,27.1 4.9,26.9 8.3,31.6 				"/>
			</g>
			<g>
				<polygon class="st7" points="4.1,31 4,30.8 8.9,27.6 9.1,27.9 				"/>
			</g>
			<g>
				<path class="st7" d="M7.8,32c-2.2-0.6-3-1.8-3.3-2.8c-0.3-1-0.2-1.9-0.2-2l0.3,0c0,0-0.2,0.9,0.2,1.9c0.4,1.3,1.5,2.2,3.1,2.6
					L7.8,32z"/>
			</g>
			<g>
				<path class="st7" d="M8.8,31.4l-0.3,0c0.2-1.6-0.3-2.8-1.5-3.7c-0.9-0.6-1.8-0.8-1.8-0.8l0.1-0.3c0,0,1,0.2,1.9,0.9
					C8,28.1,9,29.3,8.8,31.4z"/>
			</g>
			<g>
				<path class="st7" d="M3.5,29.1l0-0.3c0,0,2.5-0.2,3.6-2.3l0.2,0.1C6.2,28.8,3.6,29.1,3.5,29.1z"/>
			</g>
			<g>
				<path class="st7" d="M6,32.1L5.7,32c1.1-2.2,3.8-2.4,3.8-2.4l0,0.3C9.5,29.8,7,30.1,6,32.1z"/>
			</g>
		</g>
	</g>
	<g>
		<g>
			<polygon class="st7" points="27,29.7 27.7,28.8 26.6,28.7 27.2,27.8 26.1,27.7 26.7,26.9 25.6,26.8 26.3,25.9 26.2,25.9 
				26.2,25.8 25.2,25.7 25.8,24.9 24.7,24.8 25.3,23.9 24.2,23.8 24.9,22.9 23.8,22.8 24.4,21.9 24.3,21.9 17.7,24.7 19.6,28.6 
				21.5,32.6 28.1,29.8 			"/>
		</g>
		<g>
			<polygon class="st8" points="9.3,37.6 5.5,29.7 17.7,24.7 21.5,32.6 			"/>
		</g>
		<g>
			<path class="st4" d="M19.8,26.2c-0.1,0-0.1,0-0.1-0.1c0-0.1,0-0.1,0.1-0.2l1.8-0.7c0.1,0,0.2,0,0.2,0.1c0,0.1,0,0.1-0.1,0.2
				L19.8,26.2C19.9,26.2,19.9,26.2,19.8,26.2z"/>
		</g>
		<g>
			<path class="st4" d="M20.2,27c-0.1,0-0.1,0-0.1-0.1c0-0.1,0-0.1,0.1-0.2l3.1-1.3c0.1,0,0.2,0,0.2,0.1c0,0.1,0,0.1-0.1,0.2
				L20.2,27C20.3,27,20.3,27,20.2,27z"/>
		</g>
		<g>
			<path class="st4" d="M20.7,27.9c-0.1,0-0.1,0-0.1-0.1c0-0.1,0-0.1,0.1-0.2l3.1-1.3c0.1,0,0.2,0,0.2,0.1c0,0.1,0,0.1-0.1,0.2
				L20.7,27.9C20.7,27.9,20.7,27.9,20.7,27.9z"/>
		</g>
		<g>
			<path class="st4" d="M21.1,28.7c-0.1,0-0.1,0-0.1-0.1c0-0.1,0-0.1,0.1-0.2l3.1-1.3c0.1,0,0.2,0,0.2,0.1c0,0.1,0,0.1-0.1,0.2
				L21.1,28.7C21.1,28.7,21.1,28.7,21.1,28.7z"/>
		</g>
		<g>
			<path class="st4" d="M21.5,29.6c-0.1,0-0.1,0-0.1-0.1c0-0.1,0-0.1,0.1-0.2l3.1-1.3c0.1,0,0.2,0,0.2,0.1c0,0.1,0,0.1-0.1,0.2
				L21.5,29.6C21.5,29.6,21.5,29.6,21.5,29.6z"/>
		</g>
		<g>
			<path class="st4" d="M21.9,30.4c-0.1,0-0.1,0-0.1-0.1c0-0.1,0-0.1,0.1-0.2l3.1-1.3c0.1,0,0.2,0,0.2,0.1c0,0.1,0,0.1-0.1,0.2
				L21.9,30.4C21.9,30.4,21.9,30.4,21.9,30.4z"/>
		</g>
		<g>
			<path class="st6" d="M13.8,28.7c-0.1,0-0.1,0-0.1-0.1c0-0.1,0-0.1,0.1-0.2l2.1-0.9c0.1,0,0.2,0,0.2,0.1c0,0.1,0,0.1-0.1,0.2
				L13.8,28.7C13.9,28.7,13.8,28.7,13.8,28.7z"/>
		</g>
		<g>
			<path class="st6" d="M14.2,29.5c-0.1,0-0.1,0-0.1-0.1c0-0.1,0-0.1,0.1-0.2l3.8-1.6c0.1,0,0.2,0,0.2,0.1c0,0.1,0,0.1-0.1,0.2
				L14.2,29.5C14.3,29.5,14.2,29.5,14.2,29.5z"/>
		</g>
		<g>
			<path class="st6" d="M14.6,30.3c-0.1,0-0.1,0-0.1-0.1c0-0.1,0-0.1,0.1-0.2l2.1-0.9c0.1,0,0.2,0,0.2,0.1c0,0.1,0,0.1-0.1,0.2
				L14.6,30.3C14.6,30.3,14.6,30.3,14.6,30.3z"/>
		</g>
		<g>
			<path class="st6" d="M15,31.1c-0.1,0-0.1,0-0.1-0.1c0-0.1,0-0.1,0.1-0.2l3.8-1.6c0.1,0,0.2,0,0.2,0.1c0,0.1,0,0.1-0.1,0.2
				L15,31.1C15,31.1,15,31.1,15,31.1z"/>
		</g>
		<g>
			<g>
				<path class="st7" d="M11,29.6c1.1,0,2.1,0.6,2.6,1.6c0.6,1.3,0,2.9-1.4,3.5c-0.4,0.2-0.8,0.2-1.1,0.2c-1.1,0-2.1-0.6-2.6-1.6
					c-0.6-1.3,0-2.9,1.4-3.5C10.2,29.6,10.6,29.6,11,29.6L11,29.6z M11,29.3v0.3V29.3c-0.4,0-0.9,0.1-1.3,0.3
					c-1.6,0.6-2.3,2.4-1.6,3.8c0.5,1,1.6,1.7,2.8,1.7c0.4,0,0.9-0.1,1.3-0.3c0.8-0.3,1.3-0.9,1.6-1.6c0.3-0.7,0.3-1.5-0.1-2.2
					C13.3,30,12.2,29.3,11,29.3L11,29.3z"/>
			</g>
			<g>
				<polygon class="st7" points="12.1,34.8 9.6,29.7 9.9,29.6 12.3,34.7 				"/>
			</g>
			<g>
				<polygon class="st7" points="8.3,33.4 8.2,33.2 13.6,30.9 13.8,31.2 				"/>
			</g>
			<g>
				<path class="st7" d="M11.7,35c-2-0.9-2.6-2.3-2.7-3.3c-0.1-1.1,0.2-1.9,0.2-2l0.3,0.1l-0.1,0l0.1,0c0,0-0.3,0.8-0.2,1.9
					c0.2,1.4,1,2.4,2.6,3.1L11.7,35z"/>
			</g>
			<g>
				<path class="st7" d="M12.8,34.6l-0.3-0.1c0.5-1.5,0.2-2.8-0.7-3.8c-0.7-0.8-1.6-1.1-1.6-1.1l0.1-0.2c0,0,0.9,0.3,1.7,1.2
					C12.7,31.2,13.4,32.6,12.8,34.6z"/>
			</g>
			<g>
				<path class="st7" d="M8.3,31.5c-0.1,0-0.2,0-0.2,0l0-0.3c0,0,2.5,0.2,4-1.7l0.2,0.2C11,31.3,9,31.5,8.3,31.5z"/>
			</g>
			<g>
				<path class="st7" d="M9.9,34.9l-0.2-0.2c1.5-2,4.2-1.8,4.2-1.8l0,0.3C13.8,33.2,11.3,33,9.9,34.9z"/>
			</g>
		</g>
	</g>
	<g>
		<g>
			<polygon class="st8" points="29,34.3 23.3,34.1 27.6,36.9 			"/>
		</g>
		<g>
			<polygon class="st4" points="31.6,36.3 32.8,41.5 29.1,38.1 			"/>
		</g>
		<g>
			<path class="st8" d="M38.3,21.1l-14.7-2.3c-0.8-0.1-1.2,0.9-0.5,1.3l11.4,6.6L38.3,21.1z"/>
		</g>
		<g>
			<path class="st4" d="M43.8,25.4l5,13c0.3,0.7-0.7,1.3-1.3,0.7l-9-9.3L43.8,25.4z"/>
		</g>
		<g>
			<path class="st2" d="M46.2,20.6L45.5,24c-0.1,0.5-0.4,1-0.9,1.3L29.9,37.7c-0.5,0.5-1.3,0.5-1.9,0c-0.5-0.4-0.7-1.2-0.3-1.7
				l10.3-15.7c0.3-0.5,0.7-0.8,1.3-1l3.5-1.3c0.9-0.3,1.9-0.1,2.5,0.4C46,18.9,46.4,19.7,46.2,20.6z"/>
		</g>
		<g>
			<path class="st3" d="M46.2,20.6L45.5,24c-0.1,0.5-0.4,1-0.9,1.3L29.9,37.7c-0.5,0.5-1.3,0.5-1.9,0l17.4-19.4
				C46,18.9,46.4,19.7,46.2,20.6z"/>
		</g>
	</g>
</g>
</svg>
